<svg id="shape" xmlns="http://www.w3.org/2000/svg" xmlns:xlink="http://www.w3.org/1999/xlink" viewBox="0 0 45.91 60.95">
  <defs>
    <style>
      .cls-1 {
        fill: url(#Red_2);
      }

      .cls-2 {
        fill: url(#Blue_3);
      }

      .cls-3 {
        fill: url(#Blue_3-2);
      }

      .cls-4 {
        fill: url(#Blue_3-3);
      }

      .cls-5 {
        fill: url(#Blue_3-4);
      }

      .cls-6 {
        fill: url(#Blue_3-5);
      }

      .cls-7 {
        fill: url(#Blue_3-6);
      }

      .cls-8 {
        fill: url(#linear-gradient);
      }

      .cls-9 {
        fill: url(#Blue_2);
      }

      .cls-10 {
        fill: url(#Blue_2-2);
      }

      .cls-11 {
        fill: url(#Blue_2-3);
      }

      .cls-12 {
        fill: url(#linear-gradient-2);
      }

      .cls-13 {
        fill: url(#linear-gradient-3);
      }
    </style>
    <linearGradient id="Red_2" data-name="Red 2" x1="-11.07" y1="60.35" x2="15.12" y2="79.74" gradientTransform="matrix(0.55, -0.83, 0.83, 0.55, -27.51, -1.54)" gradientUnits="userSpaceOnUse">
      <stop offset="0" stop-color="#f5a539"/>
      <stop offset="1" stop-color="#e4087e"/>
    </linearGradient>
    <linearGradient id="Blue_3" data-name="Blue 3" x1="40.39" y1="30" x2="20.62" y2="60.33" gradientUnits="userSpaceOnUse">
      <stop offset="0" stop-color="#1d68b3"/>
      <stop offset="1" stop-color="#058cbd"/>
    </linearGradient>
    <linearGradient id="Blue_3-2" x1="37.47" y1="27.73" x2="18.88" y2="56.24" xlink:href="#Blue_3"/>
    <linearGradient id="Blue_3-3" x1="34.19" y1="26.01" x2="15.14" y2="55.23" xlink:href="#Blue_3"/>
    <linearGradient id="Blue_3-4" x1="31.44" y1="23.65" x2="13.9" y2="50.54" xlink:href="#Blue_3"/>
    <linearGradient id="Blue_3-5" x1="28.09" y1="22.07" x2="12.43" y2="46.1" xlink:href="#Blue_3"/>
    <linearGradient id="Blue_3-6" x1="23.78" y1="22.3" x2="12.99" y2="38.85" xlink:href="#Blue_3"/>
    <linearGradient id="linear-gradient" x1="6.47" y1="17.7" x2="47.96" y2="17.7" gradientUnits="userSpaceOnUse">
      <stop offset="0" stop-color="#45c0b8"/>
      <stop offset="0.65" stop-color="#196bb5"/>
    </linearGradient>
    <linearGradient id="Blue_2" data-name="Blue 2" x1="8.02" y1="16.02" x2="32.87" y2="16.02" gradientUnits="userSpaceOnUse">
      <stop offset="0" stop-color="#45c0b8"/>
      <stop offset="1" stop-color="#196bb5"/>
    </linearGradient>
    <linearGradient id="Blue_2-2" x1="5.75" y1="14.39" x2="31.36" y2="14.39" xlink:href="#Blue_2"/>
    <linearGradient id="Blue_2-3" x1="0" y1="12.78" x2="30.52" y2="12.78" xlink:href="#Blue_2"/>
    <linearGradient id="linear-gradient-2" x1="9.55" y1="11.13" x2="31.46" y2="11.13" gradientUnits="userSpaceOnUse">
      <stop offset="0" stop-color="#45c0b8"/>
      <stop offset="0.56" stop-color="#196bb5"/>
    </linearGradient>
    <linearGradient id="linear-gradient-3" x1="9.76" y1="9.36" x2="32.69" y2="9.36" gradientUnits="userSpaceOnUse">
      <stop offset="0" stop-color="#45c0b8"/>
      <stop offset="0.86" stop-color="#196bb5"/>
    </linearGradient>
  </defs>
  <title>seventh-wave-ident_editable</title>
  <path id="midline" class="cls-1" d="M44.72,23.14A7.84,7.84,0,0,0,38,19.62H12.58a1,1,0,0,0,0,2H38.11a5.77,5.77,0,0,1,4.82,2.44,5.54,5.54,0,0,1,0,6.21L23.86,59.4a1,1,0,1,0,1.67,1.1L44.65,31.37A7.52,7.52,0,0,0,44.72,23.14Z"/>
  <g id="bottom">
    <path id="botline-f" class="cls-2" d="M23.51,57.63l18.38-28a4.22,4.22,0,0,0,.32-4.11l-20.33,31a1,1,0,0,0,1.63,1.16Z"/>
    <path id="botline-e" class="cls-3" d="M22.77,52,41.13,24a4.12,4.12,0,0,0-1.78-.93L21.1,50.91a1,1,0,0,0,.29,1.39A1,1,0,0,0,22.77,52Z"/>
    <path id="botline-d" class="cls-4" d="M35,23,15.72,52.41A1,1,0,0,0,16,53.79a1,1,0,0,0,1.39-.29L37.43,23Z"/>
    <path id="botline-c" class="cls-5" d="M30.73,23,14.81,47.23a1,1,0,0,0,.84,1.55,1,1,0,0,0,.83-.45L33.13,23Z"/>
    <path id="botline-b" class="cls-6" d="M26.36,23,11.52,45.58A1,1,0,0,0,11.81,47a1,1,0,0,0,.55.17,1,1,0,0,0,.83-.45L28.75,23Z"/>
    <path id="botline-a" class="cls-7" d="M22.18,23,10.77,40.37a1,1,0,0,0,.28,1.38,1,1,0,0,0,.55.17,1,1,0,0,0,.84-.46L24.57,23Z"/>
  </g>
  <g id="top">
    <path id="topline-f" class="cls-8" d="M38.31,18.4a8.92,8.92,0,0,1,3.23.61l-.16-.29a4.35,4.35,0,0,0-3.85-2.32H7.47a1,1,0,1,0,0,2H37.53"/>
    <path id="topline-e" class="cls-9" d="M37.69,16.35l1.16,2.07a8.73,8.73,0,0,1,2.61.54l-2-3.57a4.34,4.34,0,0,0-3.85-2.32H8.88a1,1,0,0,0,0,2H35.59A2.36,2.36,0,0,1,37.69,16.35Z"/>
    <path id="topline-d" class="cls-10" d="M35.87,13.09l3,5.33a8.66,8.66,0,0,1,2.6.54l-3.84-6.83a4.34,4.34,0,0,0-3.85-2.31h-27a1,1,0,0,0,0,2h27A2.36,2.36,0,0,1,35.87,13.09Z"/>
    <path id="topline-c" class="cls-11" d="M34.07,9.88l4.8,8.54a9,9,0,0,1,2.6.54l-5.64-10A4.36,4.36,0,0,0,32,6.6H1a1,1,0,0,0,0,2H32A2.36,2.36,0,0,1,34.07,9.88Z"/>
    <path id="topline-b" class="cls-12" d="M8.31,3.29a1,1,0,0,0,0,2h21.8a2.39,2.39,0,0,1,2.1,1.28l6.65,11.85a8.66,8.66,0,0,1,2.6.54L34,5.61a4.35,4.35,0,0,0-3.85-2.32Z"/>
    <path id="topline-a" class="cls-13" d="M32.24,2.5A4.94,4.94,0,0,0,28,0H3.05a1,1,0,0,0,0,2H28a2.88,2.88,0,0,1,1.35.34A2.82,2.82,0,0,1,30.5,3.48l8.26,14.69a9,9,0,0,1,2.6.54Z"/>
  </g>
</svg>
